<?xml version="1.0" standalone="no"?><!DOCTYPE svg PUBLIC "-//W3C//DTD SVG 1.1//EN" "http://www.w3.org/Graphics/SVG/1.1/DTD/svg11.dtd"><svg t="1522743839447" class="icon" style="" viewBox="0 0 1024 1024" version="1.1" xmlns="http://www.w3.org/2000/svg" p-id="7793" xmlns:xlink="http://www.w3.org/1999/xlink" width="200" height="200"><defs><style type="text/css"></style></defs><path d="M591.9744 548.9408L768 415.2064V128H0v768H52.0704L512 436.0704z" fill="#CCCCCC" p-id="7794"></path><path d="M591.9744 548.9408L512 436.0704 52.0704 896H768V415.2064z" fill="#B5B8BA" p-id="7795"></path><path d="M591.9744 548.9408L512 436.0704 113.5104 834.56H706.56V461.9008z" fill="#EFF2F4" p-id="7796"></path><path d="M591.9744 548.9408l114.5856-87.04V189.44v0.0256h-41.7024L664.832 189.44H103.168l-0.0256 0.0256H61.44V834.56h52.0704L512 436.0704z" fill="#EFF2F4" p-id="7797"></path><path d="M567.7824 366.592h78.1568v-67.1232H286.5408v67.1232h242.8928zM188.032 723.9424v-67.4048H120.6528v67.4048h51.4304zM120.6528 480.2816h67.4048v67.4048H120.6528zM120.6528 304h67.4048v67.4048H120.6528zM287.7184 657.4336h-1.0496v3.968l3.968-3.968z" fill="#7AC3E1" p-id="7798"></path><path d="M513.9968 657.4336h-223.36l-3.968 3.968V724.5312h359.2704v-67.0976h-1.0496z" fill="#3BAFDA" p-id="7799"></path><path d="M454.0672 480.3072H286.5408v67.1488h114.048l67.1744-67.1488z" fill="#7AC3E1" p-id="7800"></path><path d="M467.7632 480.3072l-67.1744 67.1488h190.336l-47.5904-67.1488z" fill="#3BAFDA" p-id="7801"></path><path d="M593.92 547.456H647.3728v-40.6016z" fill="#7AC3E1" p-id="7802"></path><path d="M647.3728 481.3568v-1.0496h-104.0384l47.5904 67.1488h2.9952l53.4528-40.6016z" fill="#7AC3E1" p-id="7803"></path><path d="M527.0016 728.2688L694.7328 896l72.7296-72.064-168.064-168.064z" fill="#81A537" p-id="7804"></path><path d="M819.2 640.8704l66.2016 66.2016L768 824.4736l-0.5376-0.5376L694.7328 896h146.5344l116.5312-116.5312L1024 845.6704v-204.8h-72.3968z" fill="#B3D461" p-id="7805"></path><path d="M768.5376 457.8048h144.8192l-72.0896-72.0896z" fill="#9D7828" p-id="7806"></path><path d="M768.5376 457.8048l168.064 168.064 72.3968-72.4224-95.6416-95.6416z" fill="#CD9E29" p-id="7807"></path><path d="M806.8096 385.7152h-112.0768l-116.5312 116.5312L512 436.0704l79.9744 112.8704z" fill="#EED557" p-id="7808"></path><path d="M591.9744 548.9408L512 436.0704v204.8h204.8l-66.2016-66.2016L768 457.2672l0.5376 0.5376 72.7296-72.0896h-34.4576z" fill="#EED557" p-id="7809"></path></svg>