<?xml version="1.0" standalone="no"?><!DOCTYPE svg PUBLIC "-//W3C//DTD SVG 1.1//EN" "http://www.w3.org/Graphics/SVG/1.1/DTD/svg11.dtd"><svg t="1522745039979" class="icon" style="" viewBox="0 0 1024 1024" version="1.1" xmlns="http://www.w3.org/2000/svg" p-id="6610" xmlns:xlink="http://www.w3.org/1999/xlink" width="200" height="200"><defs><style type="text/css"></style></defs><path d="M330.138799 1024c-11.494388-5.397365-23.788385-9.495364-34.183309-16.491947-14.19307-9.595315-22.688921-24.587994-23.588482-41.479747-1.399317-28.186237-0.399805-56.472426-0.399804-85.558223h60.270571c0 10.494876-0.099951 20.989751 0 31.484627 0.299854 28.186237 18.790825 49.875647 46.577257 54.37345 6.097023 0.999512 12.293997 1.199414 18.490971 1.199414 166.518692 0.099951 333.137335 0.099951 499.656027 0 44.178429 0 65.667936-21.789361 65.667936-66.267642V170.316837c0-43.078965-21.289605-64.168668-64.568473-64.168667-167.418253 0-334.936457 0.599707-502.354709-0.499756-37.881503-0.199902-64.36857 24.687945-64.068717 63.868814 1.299366 153.225183 0.499756 306.550317 0.499756 459.7755v17.591411c-20.689898-2.198926-39.880527-4.19795-60.670375-6.296926v-14.592874-506.352758c0-40.680137 27.386628-69.266179 67.866861-69.266178 205.099854-0.199902 410.199707-0.199902 615.299561 0 33.983407 0 57.371986 18.790825 66.767399 51.774719 0.399805 1.599219 1.599219 2.898585 2.398829 4.397853v858.680722c-3.698194 8.795705-6.496828 17.991215-11.094583 26.187213-10.394924 18.39102-28.186237 26.387116-47.376867 32.284236-211.596681 0.299854-423.393265 0.299854-635.189849 0.299854z" fill="#626264" p-id="6611"></path><path d="M0.499756 710.253197c7.896144-7.896144 14.792777-17.391508 23.888336-23.588483 57.871742-39.180869 116.343192-77.662079 174.614739-116.343191 3.698194-2.49878 7.096535-5.697218 11.194534-6.996584 5.097511-1.599219 12.293997-3.998048 15.592386-1.69917 3.398341 2.398829 4.797657 10.195022 4.19795 15.192581-2.898585 22.389068-6.796681 44.578233-10.294973 66.86735-0.699658 4.697706-1.099463 9.495364-1.899073 16.092143 35.482674 4.297901 69.965837 9.395412 104.648902 12.593851 66.667448 6.296925 133.434846 8.3959 200.102294 0.699658 64.768375-7.49634 127.937531-21.489507 182.21103-59.570913 22.089214-15.492435 40.080429-36.981942 59.770815-55.872718 2.098975-1.999024 3.698194-4.397853 6.596779-5.597267-54.673304 107.047731-132.535286 191.906296-240.482577 247.179307-108.447047 55.572865-223.790727 64.968277-343.432308 47.376867-3.698194 22.089214-6.796681 43.47877-11.094583 64.668423-1.099463 5.397365-5.497316 13.993167-8.695754 14.19307-5.297413 0.299854-12.493899-3.798145-16.092143-8.3959-47.976574-60.270571-95.453392-120.940947-142.93021-181.611323-2.898585-3.698194-5.297413-7.896144-7.896144-11.894192v-13.293509z" fill="#54A8B9" p-id="6612"></path><path d="M370.019327 648.68326v-13.193558-474.368375c0-26.587018 8.695754-33.083846 34.683064-25.587506 90.555783 25.987311 181.011615 51.974622 271.467448 77.961933 24.887848 7.196486 33.583602 18.990727 33.583602 45.377843 0 102.350024-0.099951 204.600098 0.199902 306.950122 0 9.495364-2.798633 15.392484-10.494875 20.8898-43.878575 31.484627-93.754222 47.176964-146.128649 56.072621-58.371498 9.895168-117.142801 10.89468-176.114006 7.496339-1.899073-0.099951-4.097999-0.899561-7.196486-1.599219z m316.745339-113.544558c-0.199902-12.393948-8.195998-23.38858-17.091655-23.488531-9.19551-0.199902-17.59141 11.594339-17.491459 24.388092 0.099951 12.393948 7.896144 22.988775 17.091654 23.088726 9.795217 0.099951 17.691362-10.794729 17.49146-23.988287zM370.219229 875.272621c135.43387-18.990727 246.479649-82.159883 338.434749-184.509907 0.599707 5.297413 1.099463 8.096047 1.099463 10.994631 0.099951 38.980966 0.099951 77.861981 0 116.842948-0.099951 21.589458-10.195022 34.583114-30.984871 40.580185-90.855637 26.187213-181.711274 52.374427-272.466959 78.56164-3.798145 1.099463-7.596291 2.49878-11.494388 3.198438-12.993655 2.698682-23.588482-4.397853-24.388092-17.491459-0.899561-15.89224-0.199902-31.78448-0.199902-48.176476z" fill="#626264" p-id="6613"></path></svg>