<?xml version="1.0" standalone="no"?><!DOCTYPE svg PUBLIC "-//W3C//DTD SVG 1.1//EN" "http://www.w3.org/Graphics/SVG/1.1/DTD/svg11.dtd"><svg t="1536051711952" class="icon" style="" viewBox="0 0 1024 1024" version="1.1" xmlns="http://www.w3.org/2000/svg" p-id="20021" xmlns:xlink="http://www.w3.org/1999/xlink" width="200" height="200"><defs><style type="text/css"></style></defs><path d="M50 50v924h924V50H50zM0 0h1024v1024H0V0z" fill="#666666" p-id="20022"></path><path d="M419 422h187v180H419zM801 553H666v-80h135v-80l140 120-140 120v-80z m-577-80h135v80H224v80L84 513l140-120v80z m248 324V662h80v135h80L512 937 392 797h80z m80-570v135h-80V227h-80L512 87l120 140h-80z" fill="#1296db" p-id="20023"></path></svg>