<?xml version="1.0" standalone="no"?><!DOCTYPE svg PUBLIC "-//W3C//DTD SVG 1.1//EN" "http://www.w3.org/Graphics/SVG/1.1/DTD/svg11.dtd"><svg t="1522324192075" class="icon" style="" viewBox="0 0 1024 1024" version="1.1" xmlns="http://www.w3.org/2000/svg" p-id="1932" xmlns:xlink="http://www.w3.org/1999/xlink" width="200" height="200"><defs><style type="text/css"></style></defs><path d="M896 960H128c-35.3 0-64-28.7-64-64V128c0-35.3 28.7-64 64-64h768c35.3 0 64 28.7 64 64v768c0 35.3-28.7 64-64 64z" fill="#3D5AFE" p-id="1933"></path><path d="M426.3 426.3H128V189.7c0-34 27.7-61.7 61.7-61.7h236.6v298.3z m-236.6-61.7h174.9V189.7H189.7v174.9zM395.4 896H266.9c-17.1 0-30.9-13.8-30.9-30.9 0-17.1 13.8-30.9 30.9-30.9h128.6c17.1 0 30.9 13.8 30.9 30.9-0.1 17.1-13.9 30.9-31 30.9zM158.9 779.4c-17.1 0-30.9-13.8-30.9-30.9v-120c0-17.1 13.8-30.9 30.9-30.9s30.9 13.8 30.9 30.9v120c-0.1 17.1-13.9 30.9-30.9 30.9z" fill="#FFEA00" p-id="1934"></path><path d="M896 426.3H597.7V128h236.6c34 0 61.7 27.7 61.7 61.7v236.6z m-236.6-61.7h174.9V189.7H659.4v174.9z" fill="#FFFF8D" p-id="1935"></path><path d="M834.3 896H597.7V597.7H896v236.6c0 34-27.7 61.7-61.7 61.7z m-174.9-61.7h174.9V659.4H659.4v174.9z" fill="#FFEA00" p-id="1936"></path><path d="M365.4 762.3h-72.9c-17.1 0-30.9-13.8-30.9-30.9v-72.9c0-17.1 13.8-30.9 30.9-30.9h103.7v103.7c0.1 17.2-13.7 31-30.8 31z" fill="#FFFF8D" p-id="1937"></path><path d="M512 896c-17.1 0-30.9-13.8-30.9-30.9V614.4c0-17.1 13.8-30.9 30.9-30.9 17.1 0 30.9 13.8 30.9 30.9v250.7c0 17.1-13.8 30.9-30.9 30.9z m0-465c-17.1 0-30.9-13.8-30.9-30.9V158.9c0-17.1 13.8-30.9 30.9-30.9 17.1 0 30.9 13.8 30.9 30.9v241.3c0 17-13.8 30.8-30.9 30.8z m353.1 111.9H158.9c-17.1 0-30.9-13.8-30.9-30.9 0-17.1 13.8-30.9 30.9-30.9h706.3c17.1 0 30.9 13.8 30.9 30.9-0.1 17.1-13.9 30.9-31 30.9z" fill="#8C9EFF" p-id="1938"></path></svg>